<svg xmlns="http://www.w3.org/2000/svg" viewBox="0 0 1024 840" role="img" aria-label="InsightOut logo">
  <defs>
    <linearGradient id="glass" x1="0" y1="0" x2="0" y2="1"><stop offset="0" stop-color="#E9F1FF"/><stop offset="0.45" stop-color="#B5D0FA"/><stop offset="1" stop-color="#76A6F3"/></linearGradient>
    <linearGradient id="sheen" x1="0" y1="0" x2="0" y2="1">
      <stop offset="0" stop-color="#FFFFFF" stop-opacity="0.9"/>
      <stop offset="0.45" stop-color="#FFFFFF" stop-opacity="0"/>
    </linearGradient>
    <linearGradient id="speed" x1="0" y1="0" x2="1" y2="0"><stop offset="0" stop-color="#7FAFF8"/><stop offset="1" stop-color="#2470E5"/></linearGradient>
    <filter id="float" x="-20%" y="-20%" width="140%" height="150%"><feDropShadow dx="0" dy="10" stdDeviation="14" flood-color="#2470E5" flood-opacity="0.18"/></filter>
  </defs>

  <!-- icon -->
  <g id="icon" filter="url(#float)">
    <g fill="url(#glass)" stroke="#5E8FE0" stroke-opacity="0.6" stroke-width="2">
      <circle cx="320" cy="288" r="45"/>
      <rect x="283" y="352" width="74" height="268" rx="37"/>
      <path d="M 669.4,446 A 154,154 0 1 0 667.8,486 L 595.9,486 A 84,84 0 1 1 598.8,446 Z"/>
    </g>
    <!-- glassy sheen overlay -->
    <g fill="url(#sheen)" opacity="0.5">
      <circle cx="320" cy="288" r="45"/>
      <rect x="283" y="352" width="74" height="268" rx="37"/>
      <path d="M 669.4,446 A 154,154 0 1 0 667.8,486 L 595.9,486 A 84,84 0 1 1 598.8,446 Z"/>
    </g>
    <g id="speedlines" fill="url(#speed)">
    <rect x="674" y="416" width="56" height="13" rx="6"/>
    <rect x="674" y="444" width="104" height="13" rx="6"/>
    <rect x="788" y="444" width="13" height="13" rx="6"/>
    <rect x="600" y="463" width="108" height="14" rx="7"/>
    <rect x="667" y="490" width="80" height="13" rx="6"/>
    <rect x="754" y="490" width="15" height="13" rx="6"/>
    <rect x="669" y="515" width="50" height="12" rx="6"/>
    </g>
  </g>

  <!-- wordmark -->
  <g id="wordmark">
    <g fill="#101828"><path transform="translate(155.0,740.0) scale(0.06400,-0.06400)" d="M122 0V700H173V0Z"/><path transform="translate(200.8,740.0) scale(0.06400,-0.06400)" d="M122 0V700H165L641 93V700H692V0H650L173 607V0Z"/><path transform="translate(279.7,740.0) scale(0.06400,-0.06400)" d="M306 -5Q228 -5 158.5 21.5Q89 48 51 90L74 128Q110 91 172.0 65.5Q234 40 305 40Q410 40 458.5 80.0Q507 120 507 177Q507 222 483.0 249.0Q459 276 420.0 292.0Q381 308 334.5 319.0Q288 330 241.5 342.5Q195 355 156.0 375.0Q117 395 93.5 429.5Q70 464 70 519Q70 569 96.0 611.0Q122 653 177.0 679.0Q232 705 318 705Q376 705 432.5 688.0Q489 671 529 642L510 601Q466 631 415.5 645.5Q365 660 318 660Q216 660 168.5 619.0Q121 578 121 520Q121 475 144.5 448.0Q168 421 207.0 405.0Q246 389 292.5 378.0Q339 367 385.5 354.5Q432 342 471.0 322.0Q510 302 534.0 268.0Q558 234 558 180Q558 130 531.0 88.0Q504 46 448.5 20.5Q393 -5 306 -5Z"/><path transform="translate(345.6,740.0) scale(0.06400,-0.06400)" d="M122 0V700H173V0Z"/><path transform="translate(391.4,740.0) scale(0.06400,-0.06400)" d="M421 -5Q342 -5 275.0 21.5Q208 48 158.5 96.0Q109 144 82.0 209.0Q55 274 55 350Q55 427 82.0 491.5Q109 556 158.5 604.0Q208 652 275.0 678.5Q342 705 422 705Q498 705 563.0 681.0Q628 657 674 609L642 575Q596 620 541.5 639.0Q487 658 423 658Q332 658 260.5 617.5Q189 577 147.5 507.5Q106 438 106 350Q106 262 147.5 192.5Q189 123 260.5 82.5Q332 42 423 42Q478 42 528.5 56.5Q579 71 622 106V347H671V85Q624 40 558.5 17.5Q493 -5 421 -5Z"/><path transform="translate(467.7,740.0) scale(0.06400,-0.06400)" d="M641 0V333H173V0H122V700H173V378H641V700H692V0Z"/><path transform="translate(546.7,740.0) scale(0.06400,-0.06400)" d="M256 0V654H4V700H559V654H307V0Z"/></g>
    <g fill="#2470E5"><path transform="translate(678.8,740.0) scale(0.06400,-0.06400)" d="M419 -5Q341 -5 274.5 21.5Q208 48 158.5 96.0Q109 144 82.0 209.0Q55 274 55 350Q55 426 82.0 491.0Q109 556 158.5 604.0Q208 652 274.5 678.5Q341 705 419 705Q497 705 563.5 678.5Q630 652 679.0 604.0Q728 556 755.5 491.0Q783 426 783 350Q783 274 755.5 209.0Q728 144 679.0 96.0Q630 48 563.5 21.5Q497 -5 419 -5ZM419 42Q508 42 578.5 82.0Q649 122 690.0 192.0Q731 262 731 350Q731 438 690.0 508.0Q649 578 578.5 618.0Q508 658 419 658Q330 658 259.0 618.0Q188 578 147.0 508.0Q106 438 106 350Q106 262 147.0 192.0Q188 122 259.0 82.0Q330 42 419 42Z"/><path transform="translate(759.3,740.0) scale(0.06400,-0.06400)" d="M396 -5Q266 -5 191.0 71.0Q116 147 116 297V700H167V299Q167 168 227.0 105.0Q287 42 397 42Q506 42 566.0 105.0Q626 168 626 299V700H677V297Q677 147 602.0 71.0Q527 -5 396 -5Z"/><path transform="translate(837.0,740.0) scale(0.06400,-0.06400)" d="M256 0V654H4V700H559V654H307V0Z"/></g>
  </g>
</svg>